<?xml version="1.0" standalone="no"?>
<!DOCTYPE svg PUBLIC "-//W3C//DTD SVG 20010904//EN"
 "http://www.w3.org/TR/2001/REC-SVG-20010904/DTD/svg10.dtd">
<svg version="1.0" xmlns="http://www.w3.org/2000/svg"
 width="1080.000000pt" height="1080.000000pt" viewBox="0 0 1080.000000 1080.000000"
 preserveAspectRatio="xMidYMid meet">
<metadata>
Created by potrace 1.11, written by Peter Selinger 2001-2013
</metadata>
<g transform="translate(0.000000,1080.000000) scale(0.100000,-0.100000)"
fill="#000000" stroke="none">
<path d="M5650 7035 c-328 -37 -517 -89 -840 -233 -107 -48 -390 -196 -438
-231 -43 -30 -181 -110 -254 -147 -148 -75 -304 -125 -508 -163 -202 -38 -292
-49 -660 -81 -671 -57 -1221 -204 -1603 -428 -134 -78 -121 -85 75 -38 229 54
311 72 448 100 718 146 1367 166 1795 56 119 -31 221 -67 307 -111 112 -56
116 -55 111 34 -4 66 -2 76 25 117 87 135 406 276 726 321 70 10 86 15 86 29
0 15 -16 18 -118 24 -144 8 -275 -6 -457 -49 -125 -30 -124 -30 -69 8 62 43
276 166 481 276 446 239 850 336 1323 317 230 -9 378 -30 582 -81 200 -51 324
-98 698 -268 151 -68 345 -155 430 -192 85 -36 169 -73 185 -80 148 -67 457
-175 500 -175 13 0 26 -4 30 -9 8 -14 -98 -24 -175 -17 -57 6 -836 -7 -1140
-19 -47 -1 -278 -6 -515 -9 -236 -4 -450 -10 -475 -13 -44 -6 -44 -6 -16 -14
35 -10 256 -26 881 -64 138 -9 302 -20 365 -25 63 -5 198 -14 300 -20 102 -6
235 -15 295 -20 61 -5 283 -18 495 -30 550 -29 599 -34 657 -64 57 -29 144
-117 200 -201 36 -53 85 -149 139 -270 l18 -40 4 48 c9 135 -80 364 -233 596
-51 78 -53 94 -25 201 11 41 20 78 20 82 0 4 -78 4 -172 1 -188 -6 -310 6
-503 52 -225 53 -356 106 -795 322 -352 174 -437 212 -619 282 -292 112 -542
177 -841 217 -160 22 -559 27 -720 9z"/>
<path d="M2500 5691 c-83 -27 -131 -55 -193 -111 -110 -101 -161 -221 -160
-375 5 -424 508 -645 827 -364 170 150 216 412 108 613 -59 110 -199 217 -322
245 -70 16 -198 12 -260 -8z m237 -177 c106 -36 177 -111 208 -219 43 -145
-32 -303 -174 -369 -71 -32 -199 -30 -267 6 -65 34 -134 111 -157 174 -37 104
-14 230 56 310 88 100 217 138 334 98z"/>
<path d="M2592 5363 c-35 -7 -88 -66 -99 -109 -33 -135 102 -238 227 -174 131
67 86 275 -61 285 -24 2 -54 1 -67 -2z"/>
<path d="M6651 5695 c-120 -34 -248 -137 -303 -244 -107 -205 -62 -460 108
-610 95 -84 204 -124 334 -123 195 0 356 101 444 276 125 247 21 545 -233 668
-81 40 -90 42 -191 45 -72 2 -122 -2 -159 -12z m274 -199 c108 -53 175 -161
175 -282 0 -84 -24 -145 -80 -207 -63 -69 -124 -99 -214 -105 -95 -5 -172 23
-236 87 -68 68 -93 128 -94 221 -1 66 3 84 32 143 78 157 259 219 417 143z"/>
<path d="M6725 5356 c-84 -37 -117 -133 -75 -215 53 -105 208 -110 270 -9 28
47 27 125 -2 168 -43 62 -125 86 -193 56z"/>
<path d="M3884 5585 c-47 -49 -59 -87 -52 -165 6 -57 36 -106 84 -138 l34 -22
0 -230 0 -230 80 0 80 0 0 233 0 232 29 17 c16 9 42 35 58 59 53 81 33 208
-44 266 -18 14 -36 23 -40 20 -3 -4 -6 -44 -7 -89 l-1 -83 -75 0 -75 0 -3 88
c-2 56 -7 87 -14 87 -6 0 -31 -20 -54 -45z"/>
<path d="M1477 5546 c-60 -17 -115 -60 -147 -117 -25 -44 -25 -46 -28 -336
l-3 -293 80 0 80 0 3 281 3 280 25 19 c35 27 76 25 105 -5 l25 -24 0 -276 0
-275 80 0 80 0 0 266 c0 270 3 293 39 321 24 18 66 15 92 -6 24 -19 24 -20 29
-298 l5 -278 78 -3 77 -3 0 286 c0 315 -2 330 -63 393 -77 80 -189 100 -286
49 l-51 -26 -42 24 c-55 30 -120 38 -181 21z"/>
<path d="M3210 5485 c0 -71 1 -75 23 -75 12 -1 91 -1 174 -1 149 0 153 -1 183
-25 35 -30 38 -61 9 -98 l-20 -26 -185 0 -184 0 0 -80 0 -80 184 0 185 0 20
-26 c28 -36 26 -70 -5 -99 -26 -25 -30 -25 -205 -25 l-179 0 0 -75 0 -75 188
0 c199 1 236 7 290 51 57 47 76 86 80 165 4 64 1 79 -21 119 l-26 45 25 43
c18 32 24 57 24 105 0 78 -18 118 -74 170 -57 53 -105 62 -316 62 l-170 0 0
-75z"/>
<path d="M4280 5180 l0 -380 455 0 455 0 0 75 0 75 -179 0 c-175 0 -179 0
-205 25 -32 29 -34 72 -6 103 20 21 28 22 205 22 l185 0 0 80 0 80 -185 0
c-177 0 -185 1 -205 22 -25 27 -26 69 -1 99 19 23 24 24 205 27 l186 3 0 75 0
76 -198 -4 c-188 -3 -200 -4 -246 -28 -60 -31 -112 -102 -122 -165 -7 -48 15
-136 42 -166 13 -14 11 -22 -13 -65 -23 -40 -28 -61 -27 -111 l0 -63 -98 0
-98 0 0 300 0 300 -75 0 -75 0 0 -380z"/>
<path d="M5630 5180 l0 -381 78 3 77 3 0 375 0 375 -77 3 -78 3 0 -381z"/>
<path d="M6087 5554 c-4 -4 -7 -79 -7 -166 l0 -158 -120 0 -120 0 0 -80 0 -80
120 0 120 0 0 -135 0 -135 80 0 80 0 -2 378 -3 377 -70 3 c-39 1 -74 0 -78 -4z"/>
<path d="M7342 5288 l3 -273 30 -54 c118 -213 426 -209 532 7 l28 57 3 268 3
268 -78 -3 -78 -3 -5 -250 c-5 -264 -7 -276 -56 -314 -56 -44 -136 -36 -190
20 l-29 30 -5 257 -5 257 -78 3 -78 3 3 -273z"/>
<path d="M8145 5551 c-104 -17 -185 -114 -185 -220 0 -66 20 -112 69 -161 58
-58 101 -70 245 -70 101 0 105 -1 125 -26 28 -36 26 -70 -5 -99 -26 -25 -30
-25 -205 -25 l-179 0 0 -75 0 -75 183 0 c100 0 197 4 216 10 80 23 136 85 161
178 21 82 -32 195 -114 240 -23 13 -65 18 -163 22 -119 5 -135 7 -154 27 -29
29 -29 77 0 106 20 21 32 22 206 25 l185 3 0 62 c0 34 -4 67 -8 73 -8 12 -307
16 -377 5z"/>
<path d="M8761 5550 c-57 -14 -114 -60 -144 -120 -24 -47 -28 -63 -24 -112 3
-33 15 -74 28 -97 l23 -41 -23 -40 c-63 -112 -21 -252 94 -313 36 -20 58 -22
243 -25 l202 -3 0 75 0 76 -179 0 c-165 0 -180 2 -205 21 -30 23 -35 72 -12
105 13 17 31 19 203 24 l188 5 0 75 0 75 -185 3 c-174 2 -186 3 -202 23 -27
32 -23 83 8 108 25 19 40 21 206 21 l179 0 -3 73 -3 72 -180 2 c-99 0 -195 -2
-214 -7z"/>
<path d="M4685 4282 c-10 -7 -57 -82 -114 -184 l-31 -56 61 -109 c34 -59 68
-115 75 -123 10 -12 38 -14 151 -12 l138 3 65 112 c36 62 66 117 68 123 4 13
-115 225 -136 242 -17 13 -259 17 -277 4z m195 -186 c0 -2 -7 -7 -16 -10 -8
-3 -12 -2 -9 4 6 10 25 14 25 6z m-103 -12 c-3 -3 -12 -4 -19 -1 -8 3 -5 6 6
6 11 1 17 -2 13 -5z m193 -4 c0 -5 -4 -10 -10 -10 -5 0 -10 5 -10 10 0 6 5 10
10 10 6 0 10 -4 10 -10z m-61 -74 c-9 -8 -10 -7 -5 7 3 10 7 28 7 40 2 16 3
14 6 -7 3 -16 -1 -34 -8 -40z m-254 44 c3 -5 2 -10 -4 -10 -5 0 -13 5 -16 10
-3 6 -2 10 4 10 5 0 13 -4 16 -10z m185 -10 c0 -11 -4 -20 -10 -20 -5 0 -10 9
-10 20 0 11 5 20 10 20 6 0 10 -9 10 -20z m133 -17 c-3 -9 -9 -11 -15 -5 -5 5
-6 17 -2 26 5 13 9 14 14 5 5 -7 6 -19 3 -26z m-286 -18 c-4 -8 -12 -15 -19
-14 -10 0 -10 2 0 6 6 2 12 12 12 21 0 8 3 13 6 9 4 -3 4 -13 1 -22z m190 -11
c-3 -3 -12 -4 -19 -1 -8 3 -5 6 6 6 11 1 17 -2 13 -5z"/>
<path d="M6160 4056 l0 -103 38 -7 c55 -9 86 17 89 75 4 58 -16 83 -62 82 -32
-1 -35 1 -35 28 0 19 -5 29 -15 29 -12 0 -15 -18 -15 -104z m91 0 c14 -29 4
-75 -16 -83 -23 -8 -45 16 -45 51 0 55 41 76 61 32z"/>
<path d="M6320 4139 c0 -24 23 -21 28 4 2 10 -3 17 -12 17 -10 0 -16 -9 -16
-21z"/>
<path d="M6380 4055 c0 -87 3 -105 15 -105 12 0 15 18 15 105 0 87 -3 105 -15
105 -12 0 -15 -18 -15 -105z"/>
<path d="M6850 4055 c0 -87 3 -105 15 -105 12 0 15 18 15 105 0 87 -3 105 -15
105 -12 0 -15 -18 -15 -105z"/>
<path d="M5527 4143 c-4 -3 -7 -14 -7 -24 0 -9 -6 -20 -12 -22 -10 -4 -10 -7
-1 -14 6 -5 13 -35 15 -68 3 -57 4 -60 31 -63 28 -3 38 15 12 24 -19 8 -21 99
-2 108 10 5 10 7 0 12 -7 3 -13 17 -13 30 0 23 -10 31 -23 17z"/>
<path d="M3517 4103 c-18 -5 -47 -52 -47 -77 0 -75 105 -111 139 -47 37 67
-20 144 -92 124z m64 -47 c23 -50 -19 -106 -56 -76 -18 15 -20 71 -3 88 20 20
48 14 59 -12z"/>
<path d="M3856 4103 c-3 -3 -16 -6 -28 -7 -13 0 -23 -7 -22 -13 1 -7 2 -40 3
-73 1 -45 5 -60 16 -60 10 0 15 15 17 58 3 50 6 57 26 60 12 2 22 9 22 17 0
14 -24 27 -34 18z"/>
<path d="M4012 4100 c-52 -22 -53 -119 -2 -145 56 -29 110 6 110 71 0 57 -55
95 -108 74z m60 -37 c22 -20 23 -56 2 -77 -31 -32 -64 -11 -64 39 0 51 28 69
62 38z"/>
<path d="M4191 4101 c-7 -5 -22 -6 -32 -4 -17 5 -19 -1 -19 -71 0 -67 2 -76
18 -76 16 0 19 7 17 38 -3 61 8 87 36 87 23 0 24 -4 27 -62 2 -47 7 -63 17
-63 12 0 15 15 15 64 0 56 -3 67 -22 80 -25 18 -37 19 -57 7z"/>
<path d="M4350 4103 c-35 -13 -50 -37 -50 -79 0 -34 5 -47 26 -63 15 -12 34
-21 44 -21 20 0 70 37 70 51 0 15 -37 10 -44 -6 -11 -29 -66 -11 -66 22 0 9
17 13 55 13 47 0 55 3 55 19 0 39 -54 77 -90 64z m50 -43 c10 -18 8 -20 -30
-20 -41 0 -49 7 -28 28 18 18 46 14 58 -8z"/>
<path d="M5220 4097 c-28 -14 -40 -47 -17 -47 8 0 17 7 21 15 7 19 52 20 59 1
8 -19 -1 -26 -32 -26 -34 0 -71 -26 -71 -50 0 -29 42 -53 76 -43 16 4 37 6 47
4 15 -2 17 6 17 62 0 40 -5 69 -13 75 -22 18 -61 23 -87 9z m61 -99 c-11 -31
-61 -38 -61 -9 0 12 8 21 23 24 45 9 47 8 38 -15z"/>
<path d="M5624 4100 c-34 -14 -48 -70 -30 -114 15 -36 28 -42 81 -37 29 2 55
38 55 76 0 58 -55 97 -106 75z m60 -36 c40 -39 -8 -118 -49 -84 -8 7 -15 27
-15 44 0 51 33 72 64 40z"/>
<path d="M5801 4101 c-7 -5 -22 -6 -32 -4 -17 5 -19 -1 -19 -71 0 -69 2 -76
20 -76 16 0 19 8 22 63 3 54 5 62 23 62 18 0 20 -8 23 -62 2 -44 7 -63 16 -63
9 0 15 18 18 55 5 60 18 81 42 72 12 -5 16 -21 16 -67 0 -47 3 -60 15 -60 12
0 15 14 15 70 0 64 -2 71 -24 81 -17 8 -29 8 -45 0 -15 -8 -27 -9 -40 -1 -24
12 -32 12 -50 1z"/>
<path d="M6040 4103 c-35 -13 -50 -37 -50 -78 0 -50 25 -78 70 -78 45 0 70 28
70 78 0 55 -45 94 -90 78z m52 -48 c23 -51 -20 -106 -57 -75 -18 15 -20 71 -3
88 20 20 48 14 60 -13z"/>
<path d="M6490 4103 c-35 -13 -50 -37 -50 -79 0 -34 5 -47 26 -63 15 -12 33
-21 41 -21 25 0 73 30 73 45 0 19 -24 19 -40 0 -17 -21 -47 -19 -60 4 -15 30
-14 31 45 31 51 0 55 2 55 23 0 38 -53 73 -90 60z m48 -35 c21 -21 13 -28 -28
-28 -38 0 -40 2 -30 20 12 22 40 26 58 8z"/>
<path d="M6723 4103 l-33 -4 0 -105 c0 -86 3 -104 15 -104 10 0 15 10 15 31 0
28 2 31 24 25 29 -7 74 27 77 59 6 80 -21 107 -98 98z m56 -37 c17 -20 10 -77
-11 -89 -24 -16 -48 8 -48 47 0 49 34 73 59 42z"/>
<path d="M6940 4098 c-28 -15 -40 -48 -16 -48 8 0 19 7 24 16 11 20 57 15 57
-6 0 -9 -13 -17 -35 -20 -50 -8 -60 -17 -60 -51 0 -23 6 -32 26 -39 14 -6 31
-7 36 -4 6 4 25 7 42 6 l31 -1 -5 69 c-3 37 -8 71 -11 74 -13 13 -66 15 -89 4z
m70 -92 c0 -19 -26 -38 -47 -34 -27 5 -22 31 7 39 37 10 40 10 40 -5z"/>
<path d="M7097 4090 c-22 -17 -27 -30 -27 -65 0 -35 5 -48 27 -65 40 -31 103
-12 103 31 0 25 -26 24 -33 -1 -11 -41 -67 -17 -67 28 0 51 48 87 64 47 7 -19
36 -20 36 -1 0 18 -19 33 -50 41 -18 4 -34 0 -53 -15z"/>
<path d="M7250 4097 c-31 -16 -47 -70 -31 -110 19 -49 97 -58 125 -14 14 22
-1 34 -22 19 -32 -23 -43 -24 -62 -7 -32 29 -24 35 40 35 33 0 60 2 60 4 0 24
-28 69 -47 77 -31 11 -33 11 -63 -4z m58 -29 c20 -20 14 -28 -23 -28 -19 0
-35 4 -35 8 0 12 22 32 35 32 6 0 16 -5 23 -12z"/>
<path d="M3351 4026 c29 -74 30 -106 3 -106 -8 0 -14 -7 -14 -15 0 -18 33 -20
48 -2 6 6 26 54 45 105 30 80 33 92 18 92 -13 0 -23 -17 -37 -56 -10 -30 -20
-49 -22 -42 -15 59 -36 98 -52 98 -16 0 -15 -7 11 -74z"/>
<path d="M3642 4035 c4 -73 13 -87 54 -86 82 1 74 -7 74 76 0 59 -3 75 -15 75
-10 0 -15 -15 -17 -56 -2 -41 -8 -60 -20 -68 -27 -17 -42 7 -42 69 -1 47 -4
55 -20 55 -16 0 -18 -7 -14 -65z"/>
<path d="M5350 4035 c0 -57 3 -66 25 -81 16 -10 32 -13 47 -8 13 4 31 7 41 5
15 -2 17 7 17 73 0 61 -3 76 -15 76 -11 0 -15 -12 -15 -49 0 -46 -17 -81 -39
-81 -19 0 -31 29 -31 77 0 40 -4 53 -15 53 -12 0 -15 -14 -15 -65z"/>
<path d="M6320 4025 c0 -60 3 -75 15 -75 12 0 15 15 15 75 0 60 -3 75 -15 75
-12 0 -15 -15 -15 -75z"/>
<path d="M3100 3965 c0 -8 9 -15 20 -15 11 0 20 7 20 15 0 8 -9 15 -20 15 -11
0 -20 -7 -20 -15z"/>
<path d="M3180 3965 c0 -8 9 -15 20 -15 11 0 20 7 20 15 0 8 -9 15 -20 15 -11
0 -20 -7 -20 -15z"/>
<path d="M3262 3968 c7 -19 38 -22 38 -4 0 10 -9 16 -21 16 -12 0 -19 -5 -17
-12z"/>
</g>
</svg>
